<svg width="159" height="118" viewBox="0 0 159 118" fill="none" xmlns="http://www.w3.org/2000/svg">
<path d="M10.75 85.25C8.54167 83.25 7.95833 81.5 9 80L12.25 75.3125C13.375 73.6875 15.1875 73.8125 17.6875 75.6875C20.9792 78.1458 24.3958 80.1667 27.9375 81.75C31.5208 83.3333 35.8542 84.125 40.9375 84.125C44.6875 84.125 47.8542 83.5625 50.4375 82.4375C53.0208 81.3125 55.0833 79.7083 56.625 77.625C58.2083 75.5 59 72.9375 59 69.9375C59 67.7708 58.6667 65.7708 58 63.9375C57.375 62.0625 56.3542 60.5 54.9375 59.25C53.5208 58 52.0417 57.0208 50.5 56.3125C47.9583 55.1458 44.1458 53.7917 39.0625 52.25C34.0208 50.7083 29.6042 49.0417 25.8125 47.25C22.0625 45.4583 19.0625 43.2917 16.8125 40.75C14.6042 38.2083 13.125 35.6042 12.375 32.9375C11.6667 30.2292 11.3125 27.1458 11.3125 23.6875C11.3125 18.3958 12.8542 13.8333 15.9375 10C19.0208 6.16667 22.7917 3.625 27.25 2.375C31.75 1.125 36.3125 0.5 40.9375 0.5C46.2292 0.5 50.8333 1.1875 54.75 2.5625C58.6667 3.9375 62.1667 5.72917 65.25 7.9375C67.4167 9.47917 67.9167 11.1042 66.75 12.8125L63.5625 17.375C62.6042 18.75 60.7292 18.4583 57.9375 16.5C55.8125 15 53.2083 13.6042 50.125 12.3125C47.0833 10.9792 44.0625 10.3125 41.0625 10.3125C37.2292 10.3125 34.0417 10.7708 31.5 11.6875C28.9583 12.5625 26.9583 14.0625 25.5 16.1875C24.0417 18.3125 23.3125 20.7708 23.3125 23.5625C23.3125 25.3125 23.4792 26.9375 23.8125 28.4375C24.1458 29.8958 25 31.3958 26.375 32.9375C27.75 34.4792 29.4167 35.6667 31.375 36.5C34 37.625 38.0625 38.9583 43.5625 40.5C49.1042 42 53.9375 43.8542 58.0625 46.0625C61.8958 48.1042 64.6458 50.25 66.3125 52.5C68.0208 54.7083 69.3333 57.125 70.25 59.75C71.2083 62.3333 71.6875 65.25 71.6875 68.5C71.6875 74.4167 70.1667 79.3542 67.125 83.3125C64.0833 87.2708 60.4792 90.0208 56.3125 91.5625C52.1458 93.1042 46.9167 93.875 40.625 93.875C33.0833 93.875 26.8333 93 21.875 91.25C16.9167 89.5 13.2083 87.5 10.75 85.25ZM90.625 92C88.5417 92 87.5 90.8542 87.5 88.5625V5.8125C87.5 3.52083 88.5417 2.375 90.625 2.375H116.875C131.042 2.375 140.604 4.77083 145.562 9.5625C150.521 14.3125 153 20.8542 153 29.1875C153 37.5208 150.521 44.0833 145.562 48.875C140.604 53.625 131.042 56 116.875 56H99.5V88.5625C99.5 90.8542 98.4583 92 96.375 92H90.625ZM99.5 45.75H117.062C126.229 45.75 132.479 44.4583 135.812 41.875C139.146 39.25 140.812 35.0208 140.812 29.1875C140.812 23.3542 139.146 19.1458 135.812 16.5625C132.479 13.9375 126.229 12.625 117.062 12.625H99.5V45.75Z" fill="white"/>
<path d="M0.375 111.125H158.625V117.5H0.375V111.125Z" fill="white"/>
</svg>
